<svg xmlns="http://www.w3.org/2000/svg" xmlns:xlink="http://www.w3.org/1999/xlink" version="1.1" x="0px" y="0px" viewBox="0 0 100 125" enable-background="new 0 0 100 100" xml:space="preserve"><path d="M50,5.027C25.202,5.027,5.027,25.202,5.027,50S25.202,94.973,50,94.973S94.973,74.798,94.973,50S74.798,5.027,50,5.027z   M91.973,50c0,7.02-1.741,13.637-4.8,19.458c-0.263-0.773-0.739-1.69-1.405-2.727c-1.275-1.975-3.245-4.38-5.657-6.993  c0.886-3.271,1.366-6.712,1.366-10.265c0-6.77-1.72-13.14-4.74-18.7c-0.894-1.96-8.257-15.101-24.305-22.67  C74.447,9.367,91.973,27.672,91.973,50z M58.586,50c0,4.742-3.844,8.586-8.586,8.586S41.414,54.742,41.414,50  c0-4.742,3.844-8.586,8.586-8.586S58.586,45.258,58.586,50z M41.096,27.272c-1.23,5-2.32,10.46-3.13,15.79  c-5.09,4.078-9.768,8.149-13.686,11.997c-3.865-11.829,1.052-25.105,12.328-31.377c1.978-1.097,4.037-1.917,6.128-2.47  C42.171,23.123,41.62,25.156,41.096,27.272z M34.714,68.901c4.941-1.448,10.303-3.248,15.319-5.225  c6.09,2.336,11.981,4.446,17.28,5.885c-8.261,9.307-22.204,11.763-33.309,5.195c-2.02-1.198-3.82-2.628-5.394-4.225  C30.561,70.057,32.602,69.516,34.714,68.901z M61.803,43.062h0.003c-0.97-6.45-2.14-12.54-3.5-17.86  c12.17,2.6,21.18,13.52,20.94,26.42c-0.043,2.166-0.35,4.265-0.878,6.272c-1.361-1.408-2.819-2.856-4.371-4.326  C70.253,50.033,66.041,46.394,61.803,43.062z M48.342,8.069c-0.517,0.604-1.052,1.438-1.596,2.473  c-1.078,2.06-2.188,4.9-3.261,8.239c-3.376,0.875-6.692,2.215-9.856,4.053c-5.854,3.4-10.498,8.087-13.789,13.491  c-1.245,1.757-8.905,14.715-7.396,32.383C9.624,63.071,8.027,56.72,8.027,50C8.027,27.412,25.965,8.944,48.342,8.069z M50,91.973  c-14.963,0-28.113-7.876-35.547-19.694c0.784,0.146,1.781,0.19,2.957,0.14c2.313-0.102,5.325-0.576,8.733-1.319  c2.5,2.546,5.371,4.809,8.632,6.657c5.89,3.337,12.28,4.981,18.607,5.094c2.153,0.189,17.303,0.261,31.841-10.067  C77.735,84.32,64.748,91.973,50,91.973z"/><text x="0" y="115" fill="#000000" font-size="5px" font-weight="bold" font-family="'Helvetica Neue', Helvetica, Arial-Unicode, Arial, Sans-serif">Created by Juan Pablo Pérez Beltrán</text><text x="0" y="120" fill="#000000" font-size="5px" font-weight="bold" font-family="'Helvetica Neue', Helvetica, Arial-Unicode, Arial, Sans-serif">from the Noun Project</text></svg>